<svg xmlns="http://www.w3.org/2000/svg" xmlns:xlink="http://www.w3.org/1999/xlink" width="500" zoomAndPan="magnify" viewBox="0 0 375 374.999991" height="500" preserveAspectRatio="xMidYMid meet" version="1.0"><defs><g/><clipPath id="ce11647111"><path d="M 76.777344 73 L 298.027344 73 L 298.027344 302 L 76.777344 302 Z M 76.777344 73 " clip-rule="nonzero"/></clipPath></defs><rect x="-37.5" width="450" fill="#ffffff" y="-37.499999" height="449.999989" fill-opacity="1"/><rect x="-37.5" width="450" fill="#ffffff" y="-37.499999" height="449.999989" fill-opacity="1"/><g clip-path="url(#ce11647111)"><path fill="#3d3b3a" d="M 159.660156 76.703125 C 161.453125 76.253906 163.257812 75.847656 165.070312 75.484375 C 166.882812 75.121094 168.703125 74.804688 170.535156 74.53125 C 172.363281 74.257812 174.199219 74.027344 176.039062 73.84375 C 177.878906 73.65625 179.722656 73.519531 181.566406 73.421875 C 183.414062 73.328125 185.261719 73.277344 187.113281 73.273438 C 188.960938 73.265625 190.808594 73.304688 192.65625 73.390625 C 194.503906 73.476562 196.347656 73.605469 198.191406 73.777344 C 200.03125 73.953125 201.867188 74.171875 203.699219 74.433594 C 205.527344 74.699219 207.351562 75.007812 209.167969 75.359375 C 210.980469 75.710938 212.789062 76.105469 214.585938 76.546875 C 216.378906 76.984375 218.164062 77.46875 219.9375 77.996094 C 221.710938 78.519531 223.46875 79.089844 225.214844 79.703125 C 226.960938 80.3125 228.6875 80.96875 230.402344 81.664062 C 232.117188 82.359375 233.8125 83.097656 235.488281 83.875 C 237.167969 84.652344 238.824219 85.472656 240.460938 86.328125 C 242.101562 87.1875 243.714844 88.085938 245.308594 89.023438 C 246.90625 89.960938 248.476562 90.9375 250.023438 91.949219 C 251.570312 92.964844 253.089844 94.015625 254.585938 95.101562 C 256.082031 96.191406 257.550781 97.3125 258.992188 98.472656 C 260.433594 99.628906 261.84375 100.824219 263.226562 102.050781 C 264.609375 103.277344 265.964844 104.539062 267.285156 105.832031 C 268.605469 107.125 269.898438 108.449219 271.152344 109.804688 C 272.410156 111.164062 273.636719 112.546875 274.824219 113.964844 C 276.015625 115.378906 277.171875 116.820312 278.292969 118.292969 C 279.410156 119.765625 280.496094 121.261719 281.542969 122.789062 C 282.589844 124.3125 283.597656 125.859375 284.570312 127.433594 C 285.542969 129.007812 286.476562 130.601562 287.371094 132.222656 C 288.265625 133.839844 289.121094 135.480469 289.9375 137.140625 C 290.75 138.800781 291.523438 140.476562 292.257812 142.175781 C 292.992188 143.875 293.683594 145.589844 294.332031 147.320312 C 294.984375 149.050781 295.589844 150.796875 296.15625 152.558594 C 296.722656 154.320312 297.242188 156.09375 297.722656 157.878906 C 297.898438 158.539062 298.074219 159.210938 298.242188 159.894531 L 296.496094 160.503906 C 296.316406 159.785156 296.136719 159.070312 295.941406 158.351562 C 295.46875 156.582031 294.949219 154.824219 294.390625 153.078125 C 293.832031 151.335938 293.226562 149.605469 292.582031 147.886719 C 291.9375 146.171875 291.25 144.472656 290.523438 142.792969 C 289.792969 141.109375 289.023438 139.445312 288.214844 137.800781 C 287.40625 136.15625 286.554688 134.535156 285.667969 132.929688 C 284.777344 131.328125 283.851562 129.75 282.882812 128.191406 C 281.917969 126.632812 280.914062 125.101562 279.871094 123.59375 C 278.828125 122.085938 277.75 120.601562 276.636719 119.148438 C 275.523438 117.691406 274.375 116.265625 273.191406 114.867188 C 272.007812 113.464844 270.789062 112.097656 269.539062 110.757812 C 268.285156 109.417969 267.003906 108.109375 265.6875 106.832031 C 264.371094 105.554688 263.027344 104.3125 261.652344 103.101562 C 260.273438 101.890625 258.871094 100.714844 257.4375 99.574219 C 256.003906 98.429688 254.542969 97.324219 253.054688 96.253906 C 251.566406 95.183594 250.054688 94.148438 248.515625 93.152344 C 246.976562 92.15625 245.414062 91.199219 243.828125 90.277344 C 242.242188 89.359375 240.636719 88.480469 239.007812 87.636719 C 237.378906 86.796875 235.730469 85.996094 234.0625 85.234375 C 232.398438 84.472656 230.710938 83.753906 229.007812 83.078125 C 227.304688 82.398438 225.585938 81.761719 223.851562 81.167969 C 222.117188 80.574219 220.371094 80.023438 218.609375 79.515625 C 216.847656 79.007812 215.078125 78.542969 213.292969 78.121094 C 211.507812 77.699219 209.714844 77.320312 207.914062 76.988281 C 206.113281 76.652344 204.300781 76.363281 202.484375 76.121094 C 200.667969 75.875 198.847656 75.675781 197.023438 75.519531 C 195.195312 75.363281 193.367188 75.25 191.535156 75.183594 C 189.703125 75.117188 187.871094 75.097656 186.039062 75.121094 C 184.207031 75.144531 182.375 75.210938 180.546875 75.324219 C 178.714844 75.4375 176.890625 75.59375 175.070312 75.796875 C 173.246094 76 171.429688 76.246094 169.621094 76.539062 C 167.8125 76.828125 166.011719 77.164062 164.21875 77.542969 C 162.425781 77.921875 160.640625 78.347656 158.867188 78.8125 C 159.144531 78.117188 159.414062 77.417969 159.660156 76.707031 Z M 78.523438 214.730469 C 78.671875 215.320312 78.820312 215.902344 78.976562 216.488281 C 79.453125 218.265625 79.972656 220.027344 80.535156 221.777344 C 81.097656 223.527344 81.703125 225.261719 82.347656 226.980469 C 82.996094 228.699219 83.683594 230.402344 84.414062 232.089844 C 85.148438 233.773438 85.917969 235.441406 86.730469 237.089844 C 87.542969 238.738281 88.394531 240.363281 89.289062 241.972656 C 90.179688 243.578125 91.113281 245.160156 92.082031 246.722656 C 93.054688 248.28125 94.0625 249.816406 95.105469 251.328125 C 96.152344 252.839844 97.234375 254.324219 98.351562 255.78125 C 99.472656 257.238281 100.625 258.667969 101.8125 260.070312 C 103.003906 261.472656 104.222656 262.84375 105.480469 264.183594 C 106.734375 265.527344 108.023438 266.835938 109.34375 268.113281 C 110.664062 269.390625 112.015625 270.636719 113.398438 271.847656 C 114.777344 273.058594 116.1875 274.238281 117.628906 275.378906 C 119.066406 276.523438 120.53125 277.628906 122.027344 278.699219 C 123.519531 279.769531 125.039062 280.804688 126.582031 281.800781 C 128.125 282.796875 129.695312 283.753906 131.285156 284.671875 C 132.875 285.59375 134.488281 286.472656 136.125 287.3125 C 137.757812 288.152344 139.410156 288.949219 141.085938 289.710938 C 142.757812 290.46875 144.449219 291.1875 146.160156 291.863281 C 147.867188 292.539062 149.589844 293.171875 151.332031 293.761719 C 153.070312 294.351562 154.824219 294.902344 156.589844 295.40625 C 158.359375 295.910156 160.136719 296.375 161.925781 296.792969 C 163.714844 297.207031 165.511719 297.582031 167.320312 297.914062 C 169.128906 298.242188 170.945312 298.527344 172.765625 298.765625 C 174.585938 299.007812 176.414062 299.203125 178.246094 299.355469 C 180.078125 299.503906 181.910156 299.609375 183.746094 299.671875 C 185.582031 299.734375 187.421875 299.75 189.257812 299.71875 C 191.09375 299.691406 192.929688 299.617188 194.765625 299.496094 C 196.597656 299.375 198.425781 299.210938 200.253906 299.003906 C 202.078125 298.792969 203.898438 298.539062 205.710938 298.242188 C 207.523438 297.941406 209.328125 297.601562 211.125 297.214844 C 212.921875 296.828125 214.707031 296.394531 216.480469 295.921875 C 216.195312 296.617188 215.917969 297.320312 215.660156 298.03125 C 213.863281 298.488281 212.058594 298.902344 210.242188 299.273438 C 208.425781 299.640625 206.601562 299.964844 204.769531 300.246094 C 202.9375 300.527344 201.101562 300.765625 199.257812 300.953125 C 197.414062 301.144531 195.566406 301.292969 193.714844 301.394531 C 191.863281 301.496094 190.011719 301.550781 188.15625 301.5625 C 186.304688 301.574219 184.453125 301.539062 182.597656 301.460938 C 180.746094 301.378906 178.898438 301.257812 177.054688 301.085938 C 175.207031 300.917969 173.367188 300.703125 171.53125 300.445312 C 169.695312 300.1875 167.867188 299.882812 166.046875 299.535156 C 164.226562 299.1875 162.414062 298.792969 160.613281 298.359375 C 158.8125 297.921875 157.023438 297.441406 155.246094 296.917969 C 153.464844 296.394531 151.703125 295.828125 149.953125 295.21875 C 148.199219 294.609375 146.464844 293.960938 144.746094 293.265625 C 143.027344 292.570312 141.328125 291.835938 139.644531 291.058594 C 137.960938 290.285156 136.296875 289.46875 134.65625 288.609375 C 133.011719 287.75 131.390625 286.855469 129.789062 285.917969 C 128.191406 284.980469 126.613281 284.007812 125.0625 282.992188 C 123.511719 281.980469 121.984375 280.929688 120.484375 279.84375 C 118.984375 278.753906 117.507812 277.632812 116.0625 276.472656 C 114.617188 275.3125 113.199219 274.117188 111.8125 272.890625 C 110.421875 271.660156 109.066406 270.398438 107.738281 269.105469 C 106.414062 267.8125 105.117188 266.484375 103.855469 265.128906 C 102.59375 263.769531 101.367188 262.382812 100.171875 260.964844 C 98.976562 259.546875 97.816406 258.101562 96.695312 256.628906 C 95.570312 255.15625 94.480469 253.65625 93.429688 252.128906 C 92.378906 250.601562 91.367188 249.050781 90.390625 247.472656 C 89.414062 245.898438 88.480469 244.296875 87.582031 242.675781 C 86.683594 241.054688 85.828125 239.414062 85.007812 237.75 C 84.191406 236.085938 83.414062 234.402344 82.679688 232.703125 C 81.941406 231 81.25 229.28125 80.597656 227.546875 C 79.945312 225.8125 79.335938 224.0625 78.769531 222.296875 C 78.203125 220.53125 77.679688 218.753906 77.199219 216.964844 C 77.054688 216.425781 76.917969 215.882812 76.777344 215.34375 Z M 78.523438 214.730469 " fill-opacity="1" fill-rule="evenodd"/></g><g fill="#000000" fill-opacity="1"><g transform="translate(79.763224, 191.495891)"><g><path d="M 6.265625 -19.203125 L 6.265625 -3.65625 L 15.296875 -3.65625 L 15.296875 0 L 2.484375 0 L 2.484375 -19.203125 Z M 6.265625 -19.203125 "/></g></g></g><g fill="#000000" fill-opacity="1"><g transform="translate(117.359306, 191.495891)"><g><path d="M 1.296875 -9.578125 C 1.296875 -11.316406 1.734375 -12.941406 2.609375 -14.453125 C 3.492188 -15.960938 4.6875 -17.164062 6.1875 -18.0625 C 7.695312 -18.957031 9.332031 -19.40625 11.09375 -19.40625 C 12.84375 -19.40625 14.46875 -18.957031 15.96875 -18.0625 C 17.476562 -17.164062 18.679688 -15.960938 19.578125 -14.453125 C 20.472656 -12.941406 20.921875 -11.316406 20.921875 -9.578125 C 20.921875 -7.804688 20.472656 -6.171875 19.578125 -4.671875 C 18.679688 -3.171875 17.476562 -1.984375 15.96875 -1.109375 C 14.46875 -0.234375 12.84375 0.203125 11.09375 0.203125 C 9.3125 0.203125 7.671875 -0.234375 6.171875 -1.109375 C 4.679688 -1.984375 3.492188 -3.171875 2.609375 -4.671875 C 1.734375 -6.171875 1.296875 -7.804688 1.296875 -9.578125 Z M 5.21875 -9.578125 C 5.21875 -8.460938 5.484375 -7.4375 6.015625 -6.5 C 6.546875 -5.5625 7.265625 -4.816406 8.171875 -4.265625 C 9.085938 -3.710938 10.101562 -3.4375 11.21875 -3.4375 C 12.300781 -3.4375 13.285156 -3.710938 14.171875 -4.265625 C 15.054688 -4.816406 15.75 -5.554688 16.25 -6.484375 C 16.757812 -7.410156 17.015625 -8.441406 17.015625 -9.578125 C 17.015625 -10.722656 16.753906 -11.765625 16.234375 -12.703125 C 15.710938 -13.640625 15.003906 -14.382812 14.109375 -14.9375 C 13.210938 -15.488281 12.210938 -15.765625 11.109375 -15.765625 C 10.015625 -15.765625 9.019531 -15.488281 8.125 -14.9375 C 7.226562 -14.382812 6.519531 -13.640625 6 -12.703125 C 5.476562 -11.765625 5.21875 -10.722656 5.21875 -9.578125 Z M 5.21875 -9.578125 "/></g></g></g><g fill="#000000" fill-opacity="1"><g transform="translate(160.459515, 191.495891)"><g><path d="M 18.375 -19.203125 L 9.609375 0.890625 L 0.828125 -19.203125 L 5.375 -19.203125 L 9.765625 -8.375 L 13.875 -19.203125 Z M 18.375 -19.203125 "/></g></g></g><g fill="#000000" fill-opacity="1"><g transform="translate(200.53377, 191.495891)"><g><path d="M 15.578125 -19.203125 L 15.578125 -15.546875 L 6.265625 -15.546875 L 6.265625 -11.453125 L 14.515625 -11.453125 L 14.515625 -7.796875 L 6.265625 -7.796875 L 6.265625 -3.65625 L 15.9375 -3.65625 L 15.9375 0 L 2.484375 0 L 2.484375 -19.203125 Z M 15.578125 -19.203125 "/></g></g></g><g fill="#000000" fill-opacity="1"><g transform="translate(238.782005, 191.495891)"><g><path d="M 6.265625 -19.203125 L 6.265625 -3.65625 L 15.296875 -3.65625 L 15.296875 0 L 2.484375 0 L 2.484375 -19.203125 Z M 6.265625 -19.203125 "/></g></g></g><g fill="#000000" fill-opacity="1"><g transform="translate(276.378087, 191.495891)"><g><path d="M 18.453125 -19.203125 L 11.25 -5.96875 L 11.25 0 L 7.46875 0 L 7.46875 -5.96875 L 0.390625 -19.203125 L 5.0625 -19.203125 L 9.46875 -10.328125 L 13.78125 -19.203125 Z M 18.453125 -19.203125 "/></g></g></g><g fill="#000000" fill-opacity="1"><g transform="translate(155.289488, 226.574878)"><g><path d="M 5.3125 -6.390625 C 4.625 -6.753906 4.007812 -6.9375 3.46875 -6.9375 C 3.070312 -6.9375 2.757812 -6.847656 2.53125 -6.671875 C 2.300781 -6.492188 2.1875 -6.253906 2.1875 -5.953125 C 2.1875 -5.648438 2.332031 -5.394531 2.625 -5.1875 C 2.914062 -4.988281 3.320312 -4.789062 3.84375 -4.59375 C 4.238281 -4.445312 4.578125 -4.285156 4.859375 -4.109375 C 5.140625 -3.929688 5.367188 -3.6875 5.546875 -3.375 C 5.734375 -3.0625 5.828125 -2.671875 5.828125 -2.203125 C 5.828125 -1.773438 5.722656 -1.390625 5.515625 -1.046875 C 5.304688 -0.703125 5 -0.425781 4.59375 -0.21875 C 4.1875 -0.0078125 3.707031 0.09375 3.15625 0.09375 C 2.664062 0.09375 2.1875 0.0195312 1.71875 -0.125 C 1.25 -0.28125 0.832031 -0.492188 0.46875 -0.765625 L 1.03125 -1.765625 C 1.300781 -1.554688 1.625 -1.382812 2 -1.25 C 2.375 -1.113281 2.71875 -1.046875 3.03125 -1.046875 C 3.425781 -1.046875 3.769531 -1.140625 4.0625 -1.328125 C 4.351562 -1.515625 4.5 -1.800781 4.5 -2.1875 C 4.5 -2.5 4.375 -2.757812 4.125 -2.96875 C 3.882812 -3.175781 3.539062 -3.363281 3.09375 -3.53125 C 2.644531 -3.695312 2.269531 -3.863281 1.96875 -4.03125 C 1.664062 -4.195312 1.40625 -4.425781 1.1875 -4.71875 C 0.96875 -5.019531 0.859375 -5.394531 0.859375 -5.84375 C 0.859375 -6.5 1.078125 -7.023438 1.515625 -7.421875 C 1.960938 -7.828125 2.550781 -8.046875 3.28125 -8.078125 C 3.8125 -8.078125 4.273438 -8.015625 4.671875 -7.890625 C 5.078125 -7.765625 5.453125 -7.59375 5.796875 -7.375 Z M 5.3125 -6.390625 "/></g></g></g><g fill="#000000" fill-opacity="1"><g transform="translate(166.122204, 226.574878)"><g><path d="M 5.90625 -8.03125 L 5.90625 -6.796875 L 3.828125 -6.796875 L 3.828125 0 L 2.546875 0 L 2.546875 -6.796875 L 0.53125 -6.796875 L 0.53125 -8.03125 Z M 5.90625 -8.03125 "/></g></g></g><g fill="#000000" fill-opacity="1"><g transform="translate(176.965945, 226.574878)"><g><path d="M 2.265625 -2.890625 C 2.265625 -2.578125 2.34375 -2.285156 2.5 -2.015625 C 2.664062 -1.753906 2.882812 -1.546875 3.15625 -1.390625 C 3.4375 -1.234375 3.742188 -1.15625 4.078125 -1.15625 C 4.421875 -1.15625 4.734375 -1.234375 5.015625 -1.390625 C 5.304688 -1.546875 5.53125 -1.753906 5.6875 -2.015625 C 5.851562 -2.285156 5.9375 -2.578125 5.9375 -2.890625 L 5.9375 -8.03125 L 7.203125 -8.03125 L 7.203125 -2.859375 C 7.203125 -2.285156 7.0625 -1.773438 6.78125 -1.328125 C 6.507812 -0.878906 6.132812 -0.53125 5.65625 -0.28125 C 5.175781 -0.03125 4.648438 0.09375 4.078125 0.09375 C 3.503906 0.09375 2.976562 -0.03125 2.5 -0.28125 C 2.03125 -0.53125 1.660156 -0.878906 1.390625 -1.328125 C 1.117188 -1.773438 0.984375 -2.285156 0.984375 -2.859375 L 0.984375 -8.03125 L 2.265625 -8.03125 Z M 2.265625 -2.890625 "/></g></g></g><g fill="#000000" fill-opacity="1"><g transform="translate(189.552632, 226.574878)"><g><path d="M 1.109375 -8.03125 L 3.390625 -8.03125 C 4.390625 -8.03125 5.21875 -7.832031 5.875 -7.4375 C 6.539062 -7.039062 7.023438 -6.53125 7.328125 -5.90625 C 7.628906 -5.28125 7.78125 -4.613281 7.78125 -3.90625 C 7.78125 -3.125 7.597656 -2.4375 7.234375 -1.84375 C 6.867188 -1.25 6.378906 -0.789062 5.765625 -0.46875 C 5.160156 -0.15625 4.492188 0 3.765625 0 L 1.109375 0 Z M 3.546875 -1.234375 C 4.117188 -1.234375 4.625 -1.335938 5.0625 -1.546875 C 5.5 -1.765625 5.835938 -2.082031 6.078125 -2.5 C 6.328125 -2.914062 6.453125 -3.414062 6.453125 -4 C 6.453125 -4.625 6.316406 -5.144531 6.046875 -5.5625 C 5.773438 -5.988281 5.429688 -6.300781 5.015625 -6.5 C 4.609375 -6.707031 4.179688 -6.8125 3.734375 -6.8125 L 2.390625 -6.8125 L 2.390625 -1.234375 Z M 3.546875 -1.234375 "/></g></g></g><g fill="#000000" fill-opacity="1"><g transform="translate(202.359947, 226.574878)"><g><path d="M 2.390625 -8.03125 L 2.390625 0 L 1.109375 0 L 1.109375 -8.03125 Z M 2.390625 -8.03125 "/></g></g></g><g fill="#000000" fill-opacity="1"><g transform="translate(210.269365, 226.574878)"><g><path d="M 0.609375 -4 C 0.609375 -4.738281 0.789062 -5.421875 1.15625 -6.046875 C 1.519531 -6.679688 2.015625 -7.1875 2.640625 -7.5625 C 3.273438 -7.9375 3.960938 -8.125 4.703125 -8.125 C 5.441406 -8.125 6.125 -7.9375 6.75 -7.5625 C 7.382812 -7.1875 7.890625 -6.679688 8.265625 -6.046875 C 8.640625 -5.410156 8.828125 -4.726562 8.828125 -4 C 8.828125 -3.257812 8.640625 -2.578125 8.265625 -1.953125 C 7.890625 -1.328125 7.382812 -0.828125 6.75 -0.453125 C 6.125 -0.0859375 5.441406 0.09375 4.703125 0.09375 C 3.960938 0.09375 3.273438 -0.0859375 2.640625 -0.453125 C 2.015625 -0.816406 1.519531 -1.3125 1.15625 -1.9375 C 0.789062 -2.5625 0.609375 -3.25 0.609375 -4 Z M 1.9375 -4 C 1.9375 -3.476562 2.0625 -3 2.3125 -2.5625 C 2.5625 -2.132812 2.898438 -1.789062 3.328125 -1.53125 C 3.753906 -1.269531 4.226562 -1.140625 4.75 -1.140625 C 5.25 -1.140625 5.707031 -1.265625 6.125 -1.515625 C 6.550781 -1.773438 6.882812 -2.125 7.125 -2.5625 C 7.375 -3 7.5 -3.476562 7.5 -4 C 7.5 -4.519531 7.375 -5 7.125 -5.4375 C 6.875 -5.882812 6.535156 -6.238281 6.109375 -6.5 C 5.679688 -6.757812 5.210938 -6.890625 4.703125 -6.890625 C 4.191406 -6.890625 3.722656 -6.757812 3.296875 -6.5 C 2.878906 -6.238281 2.546875 -5.882812 2.296875 -5.4375 C 2.054688 -5 1.9375 -4.519531 1.9375 -4 Z M 1.9375 -4 "/></g></g></g><g fill="#3d3b3a" fill-opacity="1"><g transform="translate(182.151433, 184.147282)"><g><path d="M -5.34375 -25 C -5.5 -25.082031 -5.617188 -25.222656 -5.703125 -25.421875 C -5.785156 -25.617188 -5.867188 -26.046875 -5.953125 -26.703125 C -6.023438 -27.347656 -5.976562 -28.132812 -5.8125 -29.0625 C -5.65625 -29.988281 -5.414062 -30.65625 -5.09375 -31.0625 C -4.9375 -31.550781 -4.859375 -31.832031 -4.859375 -31.90625 C -4.773438 -32.070312 -4.691406 -32.253906 -4.609375 -32.453125 C -4.523438 -32.660156 -4.363281 -32.925781 -4.125 -33.25 C -3.800781 -33.65625 -3.5 -34.097656 -3.21875 -34.578125 C -2.9375 -35.066406 -2.796875 -35.351562 -2.796875 -35.4375 C -2.796875 -35.507812 -2.773438 -35.566406 -2.734375 -35.609375 C -2.691406 -35.648438 -2.671875 -35.628906 -2.671875 -35.546875 C -2.503906 -35.546875 -2.421875 -35.671875 -2.421875 -35.921875 C -2.421875 -36.078125 -2.34375 -36.15625 -2.1875 -36.15625 C -2.101562 -36.15625 -2.0625 -36.238281 -2.0625 -36.40625 L -1.703125 -36.765625 C -1.535156 -36.765625 -1.410156 -36.882812 -1.328125 -37.125 C -1.328125 -37.375 -1.289062 -37.5 -1.21875 -37.5 L -0.25 -38.703125 C 0.320312 -39.429688 0.648438 -39.796875 0.734375 -39.796875 C 0.804688 -39.796875 0.84375 -39.878906 0.84375 -40.046875 C 0.84375 -40.128906 1.046875 -40.367188 1.453125 -40.765625 L 1.9375 -41.375 C 1.9375 -41.539062 2.097656 -41.785156 2.421875 -42.109375 L 2.1875 -42.109375 C 2.101562 -42.109375 1.9375 -42.226562 1.6875 -42.46875 C 1.445312 -42.707031 1.328125 -42.867188 1.328125 -42.953125 C 1.328125 -43.191406 1.410156 -43.234375 1.578125 -43.078125 C 1.734375 -42.992188 2.035156 -43.03125 2.484375 -43.1875 C 2.929688 -43.351562 3.15625 -43.476562 3.15625 -43.5625 C 3.15625 -43.5625 3.175781 -43.582031 3.21875 -43.625 C 3.257812 -43.664062 3.316406 -43.644531 3.390625 -43.5625 C 3.390625 -43.5625 3.429688 -43.5625 3.515625 -43.5625 C 3.597656 -43.5625 3.679688 -43.601562 3.765625 -43.6875 L 6.1875 -46.109375 C 6.507812 -46.347656 7.21875 -46.992188 8.3125 -48.046875 C 9.40625 -49.097656 10.273438 -49.910156 10.921875 -50.484375 C 12.535156 -51.859375 14.148438 -53.191406 15.765625 -54.484375 C 17.390625 -55.773438 18.96875 -56.988281 20.5 -58.125 C 21.070312 -58.53125 21.679688 -58.929688 22.328125 -59.328125 C 22.972656 -59.734375 23.578125 -60.097656 24.140625 -60.421875 C 24.628906 -60.828125 25.273438 -61.253906 26.078125 -61.703125 C 26.890625 -62.148438 27.617188 -62.453125 28.265625 -62.609375 C 28.921875 -62.859375 29.429688 -62.878906 29.796875 -62.671875 C 30.160156 -62.472656 30.257812 -62.128906 30.09375 -61.640625 C 30.007812 -61.316406 29.5625 -60.726562 28.75 -59.875 C 27.945312 -59.03125 27.078125 -58.203125 26.140625 -57.390625 C 25.210938 -56.585938 24.425781 -55.941406 23.78125 -55.453125 L 20.75 -53.03125 L 19.171875 -51.8125 L 17.84375 -50.84375 L 16.625 -50 C 16.457031 -49.914062 15.929688 -49.585938 15.046875 -49.015625 C 14.160156 -48.453125 13.515625 -48.007812 13.109375 -47.6875 C 12.785156 -47.363281 12.378906 -47.0625 11.890625 -46.78125 C 11.398438 -46.5 11.117188 -46.359375 11.046875 -46.359375 L 9.953125 -45.625 C 9.460938 -45.300781 9.097656 -45.054688 8.859375 -44.890625 C 8.617188 -44.734375 8.210938 -44.492188 7.640625 -44.171875 L 5.453125 -42.71875 C 5.128906 -42.550781 4.890625 -42.390625 4.734375 -42.234375 C 4.734375 -42.148438 4.648438 -42.023438 4.484375 -41.859375 C 4.410156 -41.859375 3.945312 -41.3125 3.09375 -40.21875 C 2.238281 -39.132812 1.304688 -37.921875 0.296875 -36.578125 C -0.710938 -35.242188 -1.5 -34.175781 -2.0625 -33.375 C -3.675781 -30.945312 -4.609375 -28.800781 -4.859375 -26.9375 C -5.097656 -25.644531 -5.257812 -25 -5.34375 -25 Z M 7.890625 -45.5 L 10.1875 -46.84375 L 10.671875 -47.203125 C 10.921875 -47.367188 11.425781 -47.710938 12.1875 -48.234375 C 12.957031 -48.753906 13.503906 -49.179688 13.828125 -49.515625 C 14.078125 -49.671875 14.484375 -49.953125 15.046875 -50.359375 C 15.609375 -50.765625 16.015625 -51.003906 16.265625 -51.078125 C 16.503906 -51.242188 17.148438 -51.710938 18.203125 -52.484375 C 19.253906 -53.253906 20.019531 -53.835938 20.5 -54.234375 L 21.234375 -54.71875 C 21.316406 -54.71875 21.925781 -55.207031 23.0625 -56.1875 L 25.359375 -58 L 27.0625 -59.578125 L 27.421875 -59.9375 L 27.671875 -60.3125 L 27.78125 -60.421875 L 28.15625 -60.671875 L 28.15625 -60.796875 L 28.390625 -61.03125 C 28.472656 -61.113281 28.515625 -61.175781 28.515625 -61.21875 C 28.515625 -61.257812 28.515625 -61.28125 28.515625 -61.28125 C 28.515625 -61.601562 28.429688 -61.679688 28.265625 -61.515625 C 28.023438 -61.515625 27.863281 -61.476562 27.78125 -61.40625 L 27.546875 -61.28125 L 26.9375 -60.921875 L 26.09375 -60.421875 L 24.140625 -59.21875 L 23.421875 -58.734375 L 22.453125 -57.875 L 20.625 -56.671875 L 16.265625 -53.15625 C 16.179688 -53.15625 15.59375 -52.6875 14.5 -51.75 C 13.40625 -50.820312 12.269531 -49.832031 11.09375 -48.78125 C 9.925781 -47.726562 9.140625 -47 8.734375 -46.59375 C 8.253906 -46.03125 7.953125 -45.6875 7.828125 -45.5625 C 7.703125 -45.4375 7.722656 -45.414062 7.890625 -45.5 Z M 7.890625 -45.5 "/></g></g></g></svg>